<?xml version="1.0" encoding="utf-8"?>
<!-- Generator: Adobe Illustrator 24.3.0, SVG Export Plug-In . SVG Version: 6.00 Build 0)  -->
<svg version="1.1" id="Layer_1" xmlns="http://www.w3.org/2000/svg" xmlns:xlink="http://www.w3.org/1999/xlink" x="0px" y="0px"
	 viewBox="0 0 300 300" enable-background="new 0 0 300 300" xml:space="preserve">
<g>
	<g>
		<path d="M197.748,247.487h-91.339c-13.101,0-23.76-10.658-23.76-23.76V112.282c0-2.859,2.318-5.177,5.177-5.177
			c2.86,0,5.178,2.317,5.178,5.177v111.445c0,7.391,6.014,13.404,13.404,13.404h91.339c5.1,0,9.247-4.148,9.247-9.247V115.391
			c0-5.099-4.148-9.248-9.247-9.248h-88.284c-14.786,0-26.816-12.029-26.816-26.815c0-14.787,12.03-26.816,26.816-26.816l86.1,0.003
			c2.86,0,5.178,2.318,5.178,5.178c0,2.859-2.318,5.177-5.178,5.177l0,0l-86.101-0.003c-9.076,0-16.46,7.384-16.46,16.461
			c0,9.075,7.384,16.46,16.461,16.46h88.284c10.808,0,19.602,8.794,19.602,19.603v112.493
			C217.351,238.694,208.557,247.487,197.748,247.487z"/>
	</g>
	<g>
		<path d="M212.174,62.872h-0.86c-2.86,0-5.179-2.318-5.179-5.178c0-2.859,2.319-5.177,5.179-5.177h0.86
			c2.86,0,5.177,2.318,5.177,5.177C217.351,60.554,215.033,62.872,212.174,62.872z"/>
	</g>
	<g>
		<path d="M190.402,222.476h-80.803c-2.859,0-5.178-2.317-5.178-5.177v-91.324c0-2.859,2.318-5.177,5.178-5.177h80.803
			c2.86,0,5.177,2.318,5.177,5.177c0,2.859-2.317,5.177-5.177,5.177h-75.625v80.969h70.447v-68.205c0-2.86,2.318-5.178,5.178-5.178
			c2.86,0,5.177,2.318,5.177,5.178V217.3C195.579,220.159,193.262,222.476,190.402,222.476z"/>
	</g>
	<g>
		<path d="M168.818,153.571h-37.636c-2.86,0-5.177-2.318-5.177-5.177c0-2.859,2.317-5.178,5.177-5.178h37.636
			c2.86,0,5.178,2.319,5.178,5.178C173.996,151.253,171.678,153.571,168.818,153.571z"/>
	</g>
	<g>
		<path d="M168.818,176.815h-37.636c-2.86,0-5.177-2.318-5.177-5.177c0-2.859,2.317-5.177,5.177-5.177h37.636
			c2.86,0,5.178,2.317,5.178,5.177C173.996,174.497,171.678,176.815,168.818,176.815z"/>
	</g>
	<g>
		<path d="M168.818,200.059h-37.636c-2.86,0-5.177-2.318-5.177-5.177c0-2.859,2.317-5.177,5.177-5.177h37.636
			c2.86,0,5.178,2.318,5.178,5.177C173.996,197.741,171.678,200.059,168.818,200.059z"/>
	</g>
	<g>
		<path d="M190.59,84.506h-64.383c-2.859,0-5.177-2.317-5.177-5.177s2.318-5.178,5.177-5.178h64.383c2.86,0,5.178,2.318,5.178,5.178
			S193.449,84.506,190.59,84.506z"/>
	</g>
	<g>
		<path d="M110.459,84.506h-0.86c-2.859,0-5.178-2.317-5.178-5.177s2.318-5.178,5.178-5.178h0.86c2.86,0,5.178,2.318,5.178,5.178
			S113.319,84.506,110.459,84.506z"/>
	</g>
</g>
</svg>
